Coordinates
version=1
nRows=15
nColumns=34
inDegrees=yes

Units are S.I. units (second, meters, Newtons, ...)
If the header above contains a line with 'inDegrees', this indicates whether rotational values are in degrees (yes) or radians (no).

endheader
time	pelvis_tilt	pelvis_list	pelvis_rotation	pelvis_tx	pelvis_ty	pelvis_tz	hip_flexion_r	hip_adduction_r	hip_rotation_r	knee_angle_r	ankle_angle_r	subtalar_angle_r	mtp_angle_r	hip_flexion_l	hip_adduction_l	hip_rotation_l	knee_angle_l	ankle_angle_l	subtalar_angle_l	mtp_angle_l	lumbar_extension	lumbar_bending	lumbar_rotation	arm_flex_r	arm_add_r	arm_rot_r	elbow_flex_r	pro_sup_r	arm_flex_l	arm_add_l	arm_rot_l	elbow_flex_l	pro_sup_l
      8.60000000	    -11.52542893	     -0.28071200	     -0.99669078	      0.46625498	      1.19421797	     -0.06572921	     16.80788983	     -2.70707213	    -12.43340375	     15.61041773	    -21.94329191	      2.64835000	      0.00000000	     24.03804227	     -1.66181631	     -9.01374043	     20.00469658	    -28.39157997	      2.63254406	      0.00000000	    -13.08536082	     -1.21102333	      0.78137878	    -19.82120748	    -24.49536857	      9.24735182	     75.60147961	     91.00673149	    -23.83362005	    -24.36281606	     -2.27412696	     80.19443769	     85.95650046
      8.61666670	    -11.53563671	     -1.03102193	     -0.48176490	      0.48044753	      1.17529047	     -0.06394047	     18.32450322	     -2.00500043	    -12.22720446	     15.25306645	    -23.96114888	      2.11976169	      0.00000000	     24.66130612	     -2.09627175	     -9.09301270	     16.19588592	    -28.85618301	      2.81170748	      0.00000000	    -14.42590324	     -0.34003356	      0.66972109	    -20.87924492	    -23.40776136	      9.57442402	     74.38441446	     90.35609982	    -24.71986063	    -23.88001790	     -0.96849539	     78.52846597	     85.61819018
      8.63333330	    -11.80356903	     -1.34221230	      0.35526520	      0.49392471	      1.15362176	     -0.06329145	     19.79785321	     -1.74935109	    -12.42989049	     13.80743460	    -24.03122683	      2.92601691	      0.00000000	     25.21973119	     -2.01471217	     -9.65441231	     12.58960378	    -30.69644143	      2.96610572	      0.00000000	    -15.41820723	      0.13879130	      1.25914350	    -23.99493937	    -21.40260737	      8.16510857	     73.68758887	     88.10676764	    -25.05266481	    -24.50075651	      1.95445439	     77.45719266	     83.81474298
      8.65000000	    -11.72935243	     -1.56089366	      0.50395557	      0.50894558	      1.12646357	     -0.06264688	     20.92389178	     -1.25364660	    -12.21456569	     12.24764992	    -24.70228292	      3.35342443	      0.00000000	     25.34636949	     -2.21833984	    -10.15416212	      9.77699281	    -31.79460517	      3.09579095	      0.00000000	    -16.44341175	      0.34377262	      0.85629045	    -25.84136418	    -20.36648331	      8.59848947	     73.50315755	     88.07323006	    -27.17739577	    -24.27605723	      2.63436440	     76.92111751	     83.74592184
      8.66666670	    -11.83276214	     -1.93549695	      0.49311295	      0.51916637	      1.09263201	     -0.06022482	     22.85083773	     -0.76478227	    -11.74923214	     11.93389945	    -24.59072343	      3.14736547	      0.00000000	     26.13594572	     -2.75166409	    -10.71045862	      7.85399867	    -33.21172561	      0.94844359	      0.00000000	    -17.47916549	      0.52895380	      0.65962578	    -28.16483795	    -19.17469471	      8.42341020	     73.55023189	     87.95245610	    -29.80670876	    -24.11656449	      2.86365265	     77.32701585	     83.31729664
      8.68333330	    -11.47388911	     -2.16963017	      0.61933570	      0.53231795	      1.06191325	     -0.06053423	     23.94225750	     -0.62082867	    -11.97253008	     11.65199945	    -24.61645196	      3.08132707	      0.00000000	     26.35031104	     -3.11091264	    -11.34733636	      6.70904170	    -33.25170541	      0.24604429	      0.00000000	    -18.58660963	      0.80525078	      0.59615419	    -29.93127214	    -18.23441735	      8.84590577	     73.19411985	     87.96064059	    -31.85596014	    -23.67810345	      3.37164460	     76.91038470	     83.28679651
      8.70000000	    -11.79932336	     -2.07615905	      0.46699216	      0.54873807	      1.02443685	     -0.05678584	     25.82368393	     -0.72032399	    -11.76412554	     12.55947558	    -24.94678975	      2.51079656	      0.00000000	     27.21404773	     -3.28937664	    -11.36982892	      6.65154516	    -35.23348865	     -3.43010859	      0.00000000	    -18.38325461	      0.48374325	     -0.54478331	    -31.77662334	    -16.27003290	      7.12606117	     72.27448067	     87.87132719	    -35.21283922	    -22.53714623	      2.89011443	     76.09185323	     82.57024967
      8.71666670	    -11.52215887	     -2.00383983	      0.47006478	      0.56220785	      0.98965704	     -0.05492473	     26.93726609	     -0.79568739	    -12.20144256	     14.39509290	    -24.42297268	      2.18182748	      0.00000000	     28.00864901	     -3.57423448	    -10.91405535	      9.21428564	    -36.14823936	     -5.16160627	      0.00000000	    -18.86282812	      0.13807602	     -1.57049605	    -35.06209227	    -13.90144779	      6.99807909	     68.26734237	     87.84961776	    -38.39512760	    -21.10152744	      2.82536430	     74.63146582	     81.89679648
      8.73333330	    -11.26750279	     -2.11978750	      0.30979117	      0.57353143	      0.94732779	     -0.05490175	     28.59241095	     -0.72435801	    -12.32037076	     18.02162559	    -24.54720646	      1.56811218	      0.00000000	     29.25515669	     -3.79421916	    -10.65733197	     13.14420627	    -37.19816526	     -6.82744082	      0.00000000	    -19.37000010	     -0.13985878	     -2.71094901	    -36.19725288	    -13.22099064	      9.57118739	     62.85080884	     87.59843428	    -41.39724928	    -18.61037381	      1.85593712	     72.78422289	     78.39912699
      8.75000000	    -10.66353880	     -2.63552501	     -0.17747442	      0.58446889	      0.90587907	     -0.05534456	     29.96706543	      0.05725353	    -12.26051708	     22.77016692	    -21.88415391	      0.91323957	      0.00000000	     30.52419064	     -4.32491000	     -9.17462245	     19.03335457	    -34.31505971	     -8.09354440	      0.00000000	    -20.71829774	     -0.06465516	     -1.93897407	    -36.41333666	    -12.43856106	      9.18108540	     59.29526588	     87.20101035	    -42.30682995	    -16.41867959	      1.66181321	     69.60134796	     77.60073673
      8.76666670	     -9.92308177	     -2.62601194	     -0.46311918	      0.59735327	      0.86761906	     -0.05439129	     31.90359962	      0.29067118	    -11.92795653	     30.28956818	    -14.39010542	     -1.87244202	      0.00000000	     32.95405456	     -4.47088717	     -8.55590491	     28.68245458	    -26.20896641	    -12.49447362	      0.00000000	    -22.14477875	     -0.78287792	     -1.03897954	    -35.01525386	    -11.96200690	      6.89653411	     60.29161116	     86.69920758	    -41.82923637	    -12.89534905	      0.04129486	     63.83643428	     76.45530715
      8.78333330	     -9.39256196	     -3.21223559	     -0.81788159	      0.60957861	      0.82444107	     -0.05431852	     35.12186163	      1.06318784	    -11.39843955	     40.47435511	     -2.97670591	     -6.98932976	      0.00000000	     36.34709885	     -5.33134462	     -7.70128549	     40.22609616	    -12.63480212	    -16.68869794	      0.00000000	    -23.94409203	     -0.71704984	      1.04260705	    -31.61634972	    -12.44936601	      3.45133341	     63.54211187	     86.05642533	    -39.73496440	    -11.02115297	     -0.76515175	     58.50736468	     74.53262933
      8.80000000	    -10.11590941	     -3.32486606	     -1.03544544	      0.61348549	      0.78524700	     -0.05568271	     40.55728307	      1.16943119	    -10.94926092	     51.17429500	      8.42044241	    -11.53887272	      0.00000000	     41.74265263	     -5.33846439	     -6.38771289	     51.69837039	      0.48806977	    -20.00403632	      0.00000000	    -25.30815374	     -1.29424432	      2.36785933	    -25.83699029	    -14.84850875	      2.10560033	     66.12152333	     85.78423870	    -37.12948335	    -10.59857261	      0.29970564	     53.83352131	     73.91544631
      8.81666670	    -10.35732903	     -3.73130694	     -1.27242323	      0.61688618	      0.75665395	     -0.05282705	     45.27549634	      1.98071569	    -10.50118181	     60.62769130	     16.62668056	    -16.11192291	      0.00000000	     46.56438718	     -6.00020941	     -5.54468575	     62.12758069	     12.38107408	    -20.17077675	      0.00000000	    -27.29468068	     -1.07661722	      3.05908111	    -21.32199900	    -15.08771640	     -1.32701064	     65.81682918	     84.67651420	    -31.92828686	    -10.79121685	      5.38174576	     45.70390957	     72.07574967
      8.83333330	    -11.38982356	     -3.71650971	     -0.90441476	      0.61979842	      0.73274174	     -0.05507677	     50.57256043	      1.80261841	    -10.28571151	     69.07291024	     22.17144331	    -18.93977559	      0.00000000	     52.12418803	     -5.59735332	     -4.55620345	     71.18537592	     19.03752456	    -21.60770545	      0.00000000	    -28.87646069	     -1.29097537	      1.74487395	    -13.61202540	    -16.66427988	     -4.44102178	     69.52985631	     84.55752185	    -26.70432554	    -10.46261157	      7.49380777	     39.56352274	     71.51858034
